<svg width="858" height="880" viewBox="0 0 858 880" fill="none" xmlns="http://www.w3.org/2000/svg">
<g clip-path="url(#clip0_3889_121628)">
<g opacity="0.26" filter="url(#filter0_f_3889_121628)">
<path d="M216.902 266.851C227.119 302.964 264.676 323.955 300.789 313.738C336.901 303.521 357.893 265.963 347.676 229.852C337.458 193.739 299.901 172.747 263.789 182.965C227.677 193.182 206.684 230.739 216.902 266.851Z" fill="#FA8072"/>
</g>
<path d="M279.458 251.988C280.03 252.538 280.089 253.424 279.616 254.052L279.488 254.184L151.809 384.366L150.072 383.933L277.261 252.028C277.863 251.404 278.833 251.385 279.458 251.988ZM149.568 385.456L151.19 384.997L149.501 386.719L149.49 386.73C149.313 386.917 149.043 386.991 148.773 386.927L148.768 386.926L146.466 386.334L148.021 385.894L149.568 385.456ZM145.595 386.111L61.0258 364.376L61.7187 363.67L146.782 384.878L145.595 386.111ZM56.798 365.057L57.7208 365.294L1 423.009L56.798 365.057ZM57.8085 364.007L58.6659 363.118L58.6732 363.111C58.766 363.011 58.9073 362.968 59.0573 363.007L59.0638 363.009L60.2728 363.31L59.6574 363.485L58.4355 363.83L57.8085 364.007Z" stroke="#FA8072" stroke-width="1.71263"/>
<g filter="url(#filter1_di_3889_121628)">
<path d="M275.949 253.351C276.433 255.06 278.21 256.053 279.919 255.57C281.627 255.086 282.621 253.309 282.138 251.6C281.654 249.891 279.877 248.898 278.168 249.382C276.459 249.865 275.466 251.642 275.949 253.351Z" fill="url(#paint0_radial_3889_121628)"/>
<path d="M275.949 253.351C276.433 255.06 278.21 256.053 279.919 255.57C281.627 255.086 282.621 253.309 282.138 251.6C281.654 249.891 279.877 248.898 278.168 249.382C276.459 249.865 275.466 251.642 275.949 253.351Z" fill="black" fill-opacity="0.8"/>
</g>
<path d="M271.894 153.273C219.384 157.222 180.016 202.99 183.965 255.501C187.913 308.011 233.682 347.378 286.193 343.429C338.703 339.48 378.07 293.711 374.121 241.202C370.172 188.692 324.403 149.324 271.894 153.273Z" stroke="#FFCCCC" stroke-opacity="0.17" stroke-width="1.67192" stroke-linecap="round" stroke-dasharray="21.74 21.74"/>
<path d="M320.625 300.897C319.119 302.463 317.242 303.209 314.994 303.135C312.747 303.061 310.84 302.271 309.273 300.765L299.332 291.206L296.551 294.098C292.843 297.955 288.467 300.818 283.42 302.691L284.019 324.137C283.945 326.384 283.154 328.292 281.648 329.858C280.142 331.425 278.265 332.171 276.017 332.097C273.774 332.259 271.869 331.586 270.303 330.081C268.737 328.575 267.872 326.7 267.709 324.457L267.508 305.131C258.981 304.353 253.09 302.4 246.945 296.491L289.348 252.388C290.739 250.942 290.71 249.525 289.264 248.134L282.035 241.183C280.588 239.792 279.17 239.821 277.781 241.266L235.376 285.369C229.231 279.46 227.048 273.651 225.935 265.16L206.616 265.717C204.37 265.644 202.462 264.853 200.895 263.347C199.329 261.841 198.523 259.906 198.476 257.543C198.434 255.415 199.167 253.568 200.673 252.003C202.179 250.436 204.054 249.571 206.297 249.409L227.749 249.165C229.422 244.047 232.113 239.562 235.819 235.705L238.601 232.814L228.659 223.256C227.093 221.75 226.228 219.875 226.066 217.632C225.904 215.389 226.576 213.484 228.082 211.918C229.704 210.23 231.578 209.366 233.706 209.325C236.069 209.279 238.034 210.008 239.601 211.514L249.722 221.246L259.976 210.582L259.475 194.1C259.549 191.852 260.339 189.945 261.845 188.378C263.351 186.813 265.169 186.008 267.295 185.966C269.659 185.92 271.624 186.649 273.19 188.155C274.757 189.662 275.621 191.536 275.784 193.779L275.986 213.105L317.558 253.076L336.877 252.519C339.124 252.593 341.031 253.383 342.598 254.89C344.165 256.396 344.911 258.273 344.837 260.52C344.999 262.763 344.326 264.668 342.82 266.235C341.315 267.801 339.44 268.666 337.197 268.827L320.708 268.974L310.454 279.639L320.576 289.371C322.142 290.877 322.889 292.754 322.815 295.001C322.977 297.244 322.248 299.21 320.625 300.897ZM304.744 196.58C312.544 196.427 319.215 199.015 324.759 204.344C330.301 209.674 333.149 216.238 333.303 224.038C333.456 231.838 330.867 238.509 325.538 244.052L285.05 205.124C290.38 199.582 296.945 196.733 304.744 196.58Z" fill="#A44B41" fill-opacity="0.45"/>
<path d="M297.153 294.678L299.355 292.388L308.694 301.367C310.414 303.022 312.52 303.89 314.967 303.97C317.441 304.052 319.55 303.22 321.227 301.476C322.995 299.636 323.819 297.458 323.652 294.985C323.721 292.528 322.889 290.435 321.155 288.768L311.636 279.616L321.066 269.807L337.204 269.665H337.231L337.257 269.662C339.698 269.486 341.768 268.535 343.424 266.814C345.091 265.08 345.839 262.955 345.673 260.504C345.744 258.048 344.911 255.954 343.177 254.287C341.457 252.633 339.35 251.764 336.904 251.684L336.878 251.683L336.853 251.684L317.885 252.23L276.818 212.745L276.619 193.771V193.745L276.617 193.719C276.44 191.279 275.491 189.208 273.77 187.554C272.028 185.88 269.843 185.08 267.278 185.131C264.925 185.177 262.898 186.077 261.243 187.799C259.588 189.521 258.72 191.627 258.64 194.072L258.638 194.1L258.64 194.126L259.13 210.256L249.7 220.065L240.18 210.912C238.44 209.238 236.253 208.439 233.689 208.489C231.316 208.536 229.238 209.51 227.479 211.339C225.802 213.083 225.053 215.223 225.232 217.693C225.409 220.134 226.358 222.204 228.08 223.858L237.418 232.838L235.217 235.127C231.56 238.93 228.868 243.337 227.145 248.336L206.287 248.574H206.262L206.236 248.576C203.795 248.752 201.725 249.702 200.069 251.423C198.414 253.145 197.593 255.205 197.641 257.559C197.691 260.123 198.575 262.276 200.316 263.95C202.036 265.605 204.143 266.473 206.589 266.553L206.615 266.554L206.64 266.553L225.208 266.018C226.37 274.24 228.661 280.072 234.797 285.971L235.399 286.551L235.979 285.948L278.383 241.846C278.988 241.216 279.494 241.005 279.902 240.998C280.313 240.989 280.824 241.18 281.455 241.786L288.684 248.737C289.315 249.343 289.526 249.848 289.533 250.257C289.542 250.666 289.35 251.179 288.745 251.809L246.342 295.912L245.763 296.515L246.364 297.094C252.5 302.993 258.419 305.053 266.68 305.892L266.874 324.465V324.492L266.876 324.518C267.053 326.959 268.002 329.029 269.723 330.684C271.457 332.351 273.582 333.1 276.034 332.934C278.49 333.004 280.583 332.171 282.25 330.438C283.905 328.717 284.773 326.612 284.853 324.165L284.855 324.139L284.853 324.113L284.272 303.262C289.2 301.344 293.496 298.482 297.153 294.678ZM324.958 244.656L325.561 245.235L326.14 244.632C331.626 238.927 334.295 232.039 334.139 224.023C333.981 216.005 331.043 209.228 325.338 203.742C319.632 198.257 312.745 195.588 304.727 195.745C296.711 195.902 289.934 198.84 284.448 204.546L283.868 205.148L284.471 205.728L324.958 244.656Z" stroke="#FDC9C3" stroke-opacity="0.81" stroke-width="1.67192" stroke-linecap="round"/>
<g opacity="0.71">
<g filter="url(#filter2_f_3889_121628)">
<path d="M593.139 578.111C588.513 560.847 570.767 550.6 553.504 555.226C536.24 559.852 525.995 577.598 530.62 594.861C535.247 612.125 552.991 622.37 570.255 617.745C587.519 613.119 597.765 595.374 593.139 578.111Z" fill="url(#paint1_linear_3889_121628)" fill-opacity="0.11" stroke="#FFA89E" stroke-width="2.88782"/>
<path d="M348.787 640.919C317.298 523.4 387.29 402.171 504.809 370.681C622.328 339.193 743.556 409.183 775.048 526.703C806.532 644.224 736.54 765.452 619.024 796.943C501.505 828.427 380.277 758.436 348.787 640.919ZM752.311 532.795C724.183 427.807 615.888 365.284 510.9 393.415C405.913 421.547 343.39 529.839 371.521 634.828C399.652 739.816 507.945 802.335 612.933 774.207C717.921 746.078 780.44 637.783 752.311 532.795Z" fill="url(#paint2_linear_3889_121628)" fill-opacity="0.11" stroke="#FFA89E" stroke-width="2.88782"/>
<g filter="url(#filter3_i_3889_121628)">
<path d="M623.726 860.02L577.959 689.219C576.276 682.939 580 676.489 586.28 674.806C592.56 673.124 599.009 676.848 600.693 683.128L646.46 853.932C648.142 860.208 644.419 866.659 638.138 868.34C631.858 870.029 625.408 866.304 623.726 860.02Z" fill="url(#paint3_linear_3889_121628)"/>
<path d="M623.726 860.02L577.959 689.219C576.276 682.939 580 676.489 586.28 674.806C592.56 673.124 599.009 676.848 600.693 683.128L646.46 853.932C648.142 860.208 644.419 866.659 638.138 868.34C631.858 870.029 625.408 866.304 623.726 860.02Z" stroke="url(#paint4_linear_3889_121628)" stroke-width="2.88782"/>
</g>
<g filter="url(#filter4_i_3889_121628)">
<path d="M523.141 484.616L477.376 313.814C475.693 307.533 479.417 301.083 485.697 299.4C491.977 297.717 498.427 301.441 500.109 307.721L545.875 478.525C547.559 484.805 543.835 491.254 537.555 492.938C531.274 494.621 524.824 490.897 523.141 484.616Z" fill="url(#paint5_linear_3889_121628)"/>
<path d="M523.141 484.616L477.376 313.814C475.693 307.533 479.417 301.083 485.697 299.4C491.977 297.717 498.427 301.441 500.109 307.721L545.875 478.525C547.559 484.805 543.835 491.254 537.555 492.938C531.274 494.621 524.824 490.897 523.141 484.616Z" stroke="url(#paint6_linear_3889_121628)" stroke-width="2.88782"/>
</g>
<g filter="url(#filter5_i_3889_121628)">
<path d="M652.668 559.488C650.986 553.208 654.709 546.758 660.99 545.075L831.79 499.308C838.074 497.626 844.525 501.35 846.206 507.63C847.888 513.91 844.162 520.359 837.886 522.043L667.082 567.809C660.8 569.491 654.351 565.768 652.668 559.488Z" fill="url(#paint7_linear_3889_121628)"/>
<path d="M652.668 559.488C650.986 553.208 654.709 546.758 660.99 545.075L831.79 499.308C838.074 497.626 844.525 501.35 846.206 507.63C847.888 513.91 844.162 520.359 837.886 522.043L667.082 567.809C660.8 569.491 654.351 565.768 652.668 559.488Z" stroke="url(#paint8_linear_3889_121628)" stroke-width="2.88782"/>
</g>
<g filter="url(#filter6_i_3889_121628)">
<path d="M277.561 660.012C275.878 653.732 279.602 647.282 285.882 645.6L456.685 599.832C462.965 598.15 469.415 601.874 471.098 608.154C472.78 614.434 469.057 620.883 462.776 622.567L291.973 668.334C285.693 670.016 279.244 666.293 277.561 660.012Z" fill="url(#paint9_linear_3889_121628)"/>
<path d="M277.561 660.012C275.878 653.732 279.602 647.282 285.882 645.6L456.685 599.832C462.965 598.15 469.415 601.874 471.098 608.154C472.78 614.434 469.057 620.883 462.776 622.567L291.973 668.334C285.693 670.016 279.244 666.293 277.561 660.012Z" stroke="url(#paint10_linear_3889_121628)" stroke-width="2.88782"/>
</g>
</g>
<path d="M623.726 860.02L577.959 689.219C576.276 682.939 580 676.489 586.28 674.806C592.56 673.124 599.009 676.848 600.693 683.128L646.46 853.932C648.142 860.208 644.419 866.659 638.138 868.34C631.858 870.029 625.408 866.304 623.726 860.02Z" stroke="#FFA89E" stroke-width="2.88782"/>
<path d="M652.668 559.488C650.986 553.208 654.709 546.758 660.99 545.075L831.79 499.308C838.074 497.626 844.525 501.35 846.206 507.63C847.888 513.91 844.162 520.359 837.886 522.043L667.082 567.809C660.8 569.491 654.351 565.768 652.668 559.488Z" stroke="#FFA89E" stroke-width="2.88782"/>
<path d="M277.561 660.012C275.878 653.732 279.602 647.282 285.882 645.6L456.685 599.832C462.965 598.15 469.415 601.874 471.098 608.154C472.78 614.434 469.057 620.883 462.776 622.567L291.973 668.334C285.693 670.016 279.244 666.293 277.561 660.012Z" stroke="#FFA89E" stroke-width="2.88782"/>
<path d="M523.141 484.616L477.376 313.814C475.693 307.533 479.417 301.083 485.697 299.4C491.977 297.717 498.427 301.441 500.109 307.721L545.875 478.525C547.559 484.805 543.835 491.254 537.555 492.938C531.274 494.621 524.824 490.897 523.141 484.616Z" stroke="#FFA89E" stroke-width="2.88782"/>
<g filter="url(#filter7_d_3889_121628)">
<path d="M348.787 640.919C317.298 523.4 387.29 402.171 504.809 370.681C622.328 339.193 743.556 409.183 775.048 526.703C806.532 644.224 736.54 765.452 619.024 796.943C501.505 828.427 380.277 758.436 348.787 640.919ZM752.311 532.795C724.183 427.807 615.888 365.284 510.9 393.415C405.913 421.547 343.39 529.839 371.521 634.828C399.652 739.816 507.945 802.335 612.933 774.207C717.921 746.078 780.44 637.783 752.311 532.795Z" fill="url(#paint11_linear_3889_121628)" fill-opacity="0.24"/>
<path d="M348.787 640.919C317.298 523.4 387.29 402.171 504.809 370.681C622.328 339.193 743.556 409.183 775.048 526.703C806.532 644.224 736.54 765.452 619.024 796.943C501.505 828.427 380.277 758.436 348.787 640.919ZM752.311 532.795C724.183 427.807 615.888 365.284 510.9 393.415C405.913 421.547 343.39 529.839 371.521 634.828C399.652 739.816 507.945 802.335 612.933 774.207C717.921 746.078 780.44 637.783 752.311 532.795Z" stroke="#FFA89E" stroke-width="2.88782"/>
</g>
<g filter="url(#filter8_d_3889_121628)">
<path d="M594.187 577.279C589.56 560.015 571.815 549.77 554.552 554.395C537.288 559.021 527.043 576.768 531.669 594.031C536.294 611.294 554.04 621.54 571.303 616.914C588.567 612.288 598.813 594.542 594.187 577.279Z" stroke="#FFA89E" stroke-width="2.88782"/>
</g>
<path d="M510.137 600.426C517.791 628.992 547.197 645.932 575.817 638.264C604.437 630.595 621.433 601.221 613.779 572.655C606.124 544.089 576.718 527.149 548.098 534.817C519.478 542.486 502.483 571.86 510.137 600.426Z" fill="url(#paint12_linear_3889_121628)" fill-opacity="0.02"/>
</g>
<path d="M543.123 535.998C570.057 525.599 600.32 539.003 610.719 565.936C621.118 592.869 607.715 623.132 580.781 633.531C553.849 643.93 523.585 630.528 513.186 603.595C502.787 576.661 516.191 546.398 543.123 535.998Z" fill="#FA8072"/>
<path d="M543.16 536.131C516.302 546.501 502.935 576.681 513.305 603.541C523.676 630.399 553.856 643.766 580.715 633.396C607.574 623.026 620.941 592.845 610.571 565.986C600.201 539.127 570.02 525.76 543.16 536.131Z" fill="url(#paint13_radial_3889_121628)"/>
<path d="M543.16 536.131C516.302 546.501 502.935 576.681 513.305 603.541C523.676 630.399 553.856 643.766 580.715 633.396C607.574 623.026 620.941 592.845 610.571 565.986C600.201 539.127 570.02 525.76 543.16 536.131Z" fill="url(#paint14_radial_3889_121628)" fill-opacity="0.8"/>
<g opacity="0.6">
<path d="M593.521 478.787C652.051 496.222 685.365 557.803 667.931 616.332C650.496 674.862 588.915 708.174 530.386 690.74C471.855 673.305 438.542 611.725 455.977 553.195C473.411 494.666 534.992 461.352 593.521 478.787Z" stroke="url(#paint15_linear_3889_121628)" stroke-width="3.31711" stroke-miterlimit="10"/>
</g>
<g opacity="0.3" filter="url(#filter9_d_3889_121628)">
<path d="M610.134 423.008C699.468 449.619 750.319 543.611 723.705 632.945C697.095 722.279 603.102 773.127 513.768 746.513C424.434 719.904 373.586 625.912 400.197 536.578C426.808 447.243 520.8 396.397 610.134 423.008Z" stroke="url(#paint16_linear_3889_121628)" stroke-width="3.31711" stroke-miterlimit="10"/>
</g>
<g opacity="0.1" filter="url(#filter10_d_3889_121628)">
<path d="M626.749 367.235C746.891 403.022 815.273 529.426 779.484 649.564C743.694 769.699 617.292 838.081 497.153 802.299C377.014 766.51 308.632 640.106 344.42 519.968C380.207 399.828 506.61 331.448 626.749 367.235Z" stroke="url(#paint17_linear_3889_121628)" stroke-width="3.31711" stroke-miterlimit="10"/>
</g>
<g opacity="0.26" filter="url(#filter11_f_3889_121628)">
<path d="M551.705 128.472C577.328 128.489 598.112 107.731 598.129 82.1083C598.145 56.4859 577.387 35.7009 551.765 35.6843C526.142 35.668 505.357 56.4256 505.341 82.0486C505.324 107.671 526.082 128.456 551.705 128.472Z" fill="#FA8072"/>
</g>
<path d="M553.596 84.615C554.063 84.3417 554.657 84.4683 554.981 84.8958L555.044 85.0045L616.764 193.119L616.157 194.179L553.213 86.0653C552.915 85.5535 553.084 84.913 553.596 84.615ZM617.063 194.794L617.064 193.643L617.88 195.073L617.885 195.082C617.975 195.234 617.973 195.425 617.88 195.59L617.879 195.593L617.061 196.995L617.062 195.891L617.063 194.794ZM616.753 197.525L586.722 249.023L586.387 248.437L616.164 196.516L616.753 197.525ZM586.382 251.927L586.71 251.365L614.051 299.372L586.382 251.927ZM585.88 251.068L585.456 250.339L585.453 250.333C585.405 250.253 585.402 250.152 585.456 250.061L585.459 250.057L585.881 249.319L585.882 249.756L585.881 250.623L585.88 251.068Z" stroke="url(#paint18_linear_3889_121628)" stroke-width="1.16926"/>
<g filter="url(#filter12_di_3889_121628)">
<path d="M553.837 87.1736C555.05 87.1744 556.033 86.1923 556.034 84.9797C556.034 83.7675 555.052 82.7837 553.84 82.783C552.628 82.7822 551.644 83.7643 551.644 84.977C551.643 86.1896 552.625 87.1729 553.837 87.1736Z" fill="url(#paint19_radial_3889_121628)"/>
<path d="M553.837 87.1736C555.05 87.1744 556.033 86.1923 556.034 84.9797C556.034 83.7675 555.052 82.7837 553.84 82.783C552.628 82.7822 551.644 83.7643 551.644 84.977C551.643 86.1896 552.625 87.1729 553.837 87.1736Z" fill="black" fill-opacity="0.8"/>
</g>
<path d="M487.348 71.1939C480.16 106.419 502.888 140.803 538.113 147.992C573.339 155.181 607.722 132.453 614.911 97.2269C622.1 62.0012 599.371 27.6178 564.146 20.4295C528.921 13.2408 494.537 35.9687 487.348 71.1939Z" stroke="#FFCCCC" stroke-opacity="0.17" stroke-width="1.14147" stroke-linecap="round" stroke-dasharray="14.84 14.84"/>
<path d="M593.389 66.687C594.138 67.9681 594.278 69.34 593.811 70.803C593.343 72.2648 592.469 73.3706 591.188 74.1187L583.058 78.868L584.439 81.2328C586.281 84.3867 587.347 87.7951 587.637 91.4587L601.835 95.0607C603.297 95.5279 604.402 96.4026 605.15 97.6836C605.899 98.9647 606.04 100.336 605.572 101.799C605.261 103.303 604.464 104.428 603.184 105.177C601.903 105.925 600.51 106.144 599.006 105.833L586.275 102.365C584.176 107.821 581.795 111.326 576.77 114.261L555.701 78.194C555.011 77.0111 554.074 76.7655 552.892 77.4567L546.979 80.9098C545.796 81.6009 545.55 82.5378 546.241 83.7196L567.309 119.788C562.283 122.723 558.061 123.075 552.277 122.224L549.044 135.017C548.577 136.479 547.702 137.585 546.421 138.333C545.14 139.081 543.719 139.25 542.158 138.841C540.752 138.472 539.676 137.647 538.928 136.366C538.18 135.085 537.961 133.692 538.272 132.189L542.109 118.053C539.059 116.001 536.614 113.398 534.771 110.245L533.39 107.879L525.261 112.629C523.98 113.377 522.587 113.595 521.084 113.284C519.58 112.972 518.454 112.176 517.706 110.895C516.9 109.515 516.681 108.123 517.05 106.718C517.46 105.158 518.305 104.003 519.587 103.254L527.864 98.4193L522.77 89.6975L511.851 86.9564C510.388 86.4891 509.283 85.6149 508.534 84.3338C507.787 83.0529 507.597 81.7091 507.965 80.3046C508.375 78.7436 509.221 77.5885 510.502 76.8407C511.783 76.0921 513.175 75.874 514.679 76.1847L527.41 79.6521L561.408 59.7934L564.642 47.0002C565.108 45.5381 565.983 44.4323 567.265 43.6844C568.546 42.9358 569.918 42.7952 571.38 43.2628C572.883 43.5739 574.009 44.3706 574.758 45.6518C575.506 46.9323 575.725 48.3249 575.413 49.8284L572.437 60.6857L577.532 69.4077L585.81 64.5723C587.091 63.824 588.463 63.6833 589.925 64.1506C591.428 64.4622 592.584 65.3074 593.389 66.687ZM521.914 57.6846C523.266 52.5328 526.209 48.6335 530.742 45.985C535.275 43.3375 540.117 42.69 545.269 44.0421C550.421 45.3943 554.32 48.3376 556.968 52.8705L523.857 72.2119C521.209 67.6786 520.561 62.8358 521.914 57.6846Z" fill="#A44B41" fill-opacity="0.45"/>
<path d="M584.932 80.9454L583.838 79.0732L591.475 74.6114C592.883 73.79 593.845 72.5684 594.354 70.9763C594.869 69.3663 594.715 67.826 593.882 66.3999C593.003 64.8957 591.725 63.949 590.07 63.5979C588.47 63.0945 586.94 63.2516 585.522 64.0797L577.737 68.6271L573.051 60.606L575.964 49.9797L575.969 49.9616L575.972 49.9441C576.311 48.3078 576.072 46.7717 575.25 45.3633C574.422 43.9454 573.166 43.0577 571.524 42.71C569.925 42.2063 568.394 42.3633 566.976 43.1919C565.57 44.0134 564.606 45.2349 564.098 46.8271L564.092 46.8441L564.088 46.8604L560.914 59.4208L527.328 79.0388L514.829 75.6345L514.812 75.6296L514.794 75.6261C513.158 75.2877 511.622 75.5251 510.214 76.3475C508.79 77.1795 507.858 78.4664 507.413 80.16C507.005 81.7144 507.219 83.2131 508.042 84.6213C508.864 86.0292 510.086 86.9914 511.677 87.4998L511.695 87.5058L511.712 87.5097L522.399 90.193L527.084 98.2141L519.299 102.761C517.875 103.593 516.943 104.88 516.498 106.573C516.087 108.141 516.34 109.688 517.213 111.184C518.046 112.61 519.312 113.5 520.968 113.843C522.604 114.182 524.141 113.944 525.548 113.121L533.186 108.66L534.279 110.532C536.096 113.643 538.489 116.232 541.452 118.295L537.722 132.039L537.717 132.056L537.714 132.074C537.375 133.709 537.613 135.246 538.435 136.654C539.258 138.062 540.458 138.985 542.013 139.393C543.706 139.837 545.285 139.658 546.709 138.826C548.117 138.004 549.079 136.782 549.587 135.191L549.593 135.173L549.597 135.157L552.704 122.861C558.321 123.63 562.579 123.212 567.597 120.281L568.09 119.993L567.802 119.5L546.734 83.4319C546.433 82.9169 546.388 82.5458 546.46 82.276C546.531 82.0049 546.751 81.7043 547.267 81.403L553.179 77.9495C553.695 77.6482 554.066 77.6038 554.336 77.6753C554.606 77.7457 554.907 77.967 555.208 78.4818L576.276 114.549L576.565 115.042L577.057 114.755C582.075 111.824 584.531 108.32 586.62 103.05L598.856 106.383L598.873 106.388L598.891 106.391C600.528 106.73 602.063 106.492 603.471 105.67C604.889 104.842 605.777 103.586 606.125 101.944C606.628 100.344 606.471 98.8141 605.643 97.3962C604.821 95.9884 603.6 95.0263 602.008 94.5176L601.992 94.5119L601.974 94.508L588.171 91.0054C587.829 87.4115 586.749 84.0562 584.932 80.9454ZM557.256 53.364L557.749 53.0758L557.461 52.5832C554.736 47.9171 550.709 44.8808 545.414 43.4901C540.118 42.1002 535.12 42.7671 530.454 45.4925C525.788 48.2182 522.752 52.2443 521.361 57.54C519.972 62.835 520.639 67.8333 523.364 72.4994L523.651 72.9928L524.145 72.7048L557.256 53.364Z" stroke="#FDC9C3" stroke-opacity="0.81" stroke-width="1.14147" stroke-linecap="round"/>
</g>
<defs>
<filter id="filter0_f_3889_121628" x="162.939" y="129.002" width="238.7" height="238.699" filterUnits="userSpaceOnUse" color-interpolation-filters="sRGB">
<feFlood flood-opacity="0" result="BackgroundImageFix"/>
<feBlend mode="normal" in="SourceGraphic" in2="BackgroundImageFix" result="shape"/>
<feGaussianBlur stdDeviation="25.6894" result="effect1_foregroundBlur_3889_121628"/>
</filter>
<filter id="filter1_di_3889_121628" x="236.437" y="209.869" width="85.2139" height="85.2134" filterUnits="userSpaceOnUse" color-interpolation-filters="sRGB">
<feFlood flood-opacity="0" result="BackgroundImageFix"/>
<feColorMatrix in="SourceAlpha" type="matrix" values="0 0 0 0 0 0 0 0 0 0 0 0 0 0 0 0 0 0 127 0" result="hardAlpha"/>
<feOffset/>
<feGaussianBlur stdDeviation="19.6952"/>
<feComposite in2="hardAlpha" operator="out"/>
<feColorMatrix type="matrix" values="0 0 0 0 1 0 0 0 0 0.81685 0 0 0 0 0.795833 0 0 0 0.5 0"/>
<feBlend mode="normal" in2="BackgroundImageFix" result="effect1_dropShadow_3889_121628"/>
<feBlend mode="normal" in="SourceGraphic" in2="effect1_dropShadow_3889_121628" result="shape"/>
<feColorMatrix in="SourceAlpha" type="matrix" values="0 0 0 0 0 0 0 0 0 0 0 0 0 0 0 0 0 0 127 0" result="hardAlpha"/>
<feOffset/>
<feGaussianBlur stdDeviation="5.79434"/>
<feComposite in2="hardAlpha" operator="arithmetic" k2="-1" k3="1"/>
<feColorMatrix type="matrix" values="0 0 0 0 0.980392 0 0 0 0 0.501961 0 0 0 0 0.447059 0 0 0 0.7 0"/>
<feBlend mode="normal" in2="shape" result="effect2_innerShadow_3889_121628"/>
</filter>
<filter id="filter2_f_3889_121628" x="266.237" y="288.076" width="591.292" height="591.59" filterUnits="userSpaceOnUse" color-interpolation-filters="sRGB">
<feFlood flood-opacity="0" result="BackgroundImageFix"/>
<feBlend mode="normal" in="SourceGraphic" in2="BackgroundImageFix" result="shape"/>
<feGaussianBlur stdDeviation="4.73754" result="effect1_foregroundBlur_3889_121628"/>
</filter>
<filter id="filter3_i_3889_121628" x="576.11" y="672.958" width="72.198" height="203.868" filterUnits="userSpaceOnUse" color-interpolation-filters="sRGB">
<feFlood flood-opacity="0" result="BackgroundImageFix"/>
<feBlend mode="normal" in="SourceGraphic" in2="BackgroundImageFix" result="shape"/>
<feColorMatrix in="SourceAlpha" type="matrix" values="0 0 0 0 0 0 0 0 0 0 0 0 0 0 0 0 0 0 127 0" result="hardAlpha"/>
<feOffset dy="6.63422"/>
<feGaussianBlur stdDeviation="19.0733"/>
<feComposite in2="hardAlpha" operator="arithmetic" k2="-1" k3="1"/>
<feColorMatrix type="matrix" values="0 0 0 0 0 0 0 0 0 0.117647 0 0 0 0 0.290196 0 0 0 0.7 0"/>
<feBlend mode="normal" in2="shape" result="effect1_innerShadow_3889_121628"/>
</filter>
<filter id="filter4_i_3889_121628" x="475.527" y="297.551" width="72.1968" height="203.87" filterUnits="userSpaceOnUse" color-interpolation-filters="sRGB">
<feFlood flood-opacity="0" result="BackgroundImageFix"/>
<feBlend mode="normal" in="SourceGraphic" in2="BackgroundImageFix" result="shape"/>
<feColorMatrix in="SourceAlpha" type="matrix" values="0 0 0 0 0 0 0 0 0 0 0 0 0 0 0 0 0 0 127 0" result="hardAlpha"/>
<feOffset dy="6.63422"/>
<feGaussianBlur stdDeviation="19.0733"/>
<feComposite in2="hardAlpha" operator="arithmetic" k2="-1" k3="1"/>
<feColorMatrix type="matrix" values="0 0 0 0 0 0 0 0 0 0.117647 0 0 0 0 0.290196 0 0 0 0.7 0"/>
<feBlend mode="normal" in2="shape" result="effect1_innerShadow_3889_121628"/>
</filter>
<filter id="filter5_i_3889_121628" x="650.82" y="497.459" width="197.234" height="78.832" filterUnits="userSpaceOnUse" color-interpolation-filters="sRGB">
<feFlood flood-opacity="0" result="BackgroundImageFix"/>
<feBlend mode="normal" in="SourceGraphic" in2="BackgroundImageFix" result="shape"/>
<feColorMatrix in="SourceAlpha" type="matrix" values="0 0 0 0 0 0 0 0 0 0 0 0 0 0 0 0 0 0 127 0" result="hardAlpha"/>
<feOffset dy="6.63422"/>
<feGaussianBlur stdDeviation="19.0733"/>
<feComposite in2="hardAlpha" operator="arithmetic" k2="-1" k3="1"/>
<feColorMatrix type="matrix" values="0 0 0 0 0 0 0 0 0 0.117647 0 0 0 0 0.290196 0 0 0 0.7 0"/>
<feBlend mode="normal" in2="shape" result="effect1_innerShadow_3889_121628"/>
</filter>
<filter id="filter6_i_3889_121628" x="275.712" y="597.984" width="197.234" height="78.833" filterUnits="userSpaceOnUse" color-interpolation-filters="sRGB">
<feFlood flood-opacity="0" result="BackgroundImageFix"/>
<feBlend mode="normal" in="SourceGraphic" in2="BackgroundImageFix" result="shape"/>
<feColorMatrix in="SourceAlpha" type="matrix" values="0 0 0 0 0 0 0 0 0 0 0 0 0 0 0 0 0 0 127 0" result="hardAlpha"/>
<feOffset dy="6.63422"/>
<feGaussianBlur stdDeviation="19.0733"/>
<feComposite in2="hardAlpha" operator="arithmetic" k2="-1" k3="1"/>
<feColorMatrix type="matrix" values="0 0 0 0 0 0 0 0 0 0.117647 0 0 0 0 0.290196 0 0 0 0.7 0"/>
<feBlend mode="normal" in2="shape" result="effect1_innerShadow_3889_121628"/>
</filter>
<filter id="filter7_d_3889_121628" x="319.897" y="348.425" width="484.04" height="484.04" filterUnits="userSpaceOnUse" color-interpolation-filters="sRGB">
<feFlood flood-opacity="0" result="BackgroundImageFix"/>
<feColorMatrix in="SourceAlpha" type="matrix" values="0 0 0 0 0 0 0 0 0 0 0 0 0 0 0 0 0 0 127 0" result="hardAlpha"/>
<feOffset dy="6.63422"/>
<feGaussianBlur stdDeviation="9.95135"/>
<feComposite in2="hardAlpha" operator="out"/>
<feColorMatrix type="matrix" values="0 0 0 0 0 0 0 0 0 0.14902 0 0 0 0 0.364706 0 0 0 0.69 0"/>
<feBlend mode="normal" in2="BackgroundImageFix" result="effect1_dropShadow_3889_121628"/>
<feBlend mode="normal" in="SourceGraphic" in2="effect1_dropShadow_3889_121628" result="shape"/>
</filter>
<filter id="filter8_d_3889_121628" x="514.187" y="543.548" width="97.4822" height="97.4829" filterUnits="userSpaceOnUse" color-interpolation-filters="sRGB">
<feFlood flood-opacity="0" result="BackgroundImageFix"/>
<feColorMatrix in="SourceAlpha" type="matrix" values="0 0 0 0 0 0 0 0 0 0 0 0 0 0 0 0 0 0 127 0" result="hardAlpha"/>
<feOffset dy="6.63422"/>
<feGaussianBlur stdDeviation="7.4635"/>
<feComposite in2="hardAlpha" operator="out"/>
<feColorMatrix type="matrix" values="0 0 0 0 0 0 0 0 0 0 0 0 0 0 0 0 0 0 1 0"/>
<feBlend mode="normal" in2="BackgroundImageFix" result="effect1_dropShadow_3889_121628"/>
<feBlend mode="normal" in="SourceGraphic" in2="effect1_dropShadow_3889_121628" result="shape"/>
</filter>
<filter id="filter9_d_3889_121628" x="366.961" y="396.405" width="389.981" height="389.979" filterUnits="userSpaceOnUse" color-interpolation-filters="sRGB">
<feFlood flood-opacity="0" result="BackgroundImageFix"/>
<feColorMatrix in="SourceAlpha" type="matrix" values="0 0 0 0 0 0 0 0 0 0 0 0 0 0 0 0 0 0 127 0" result="hardAlpha"/>
<feOffset dy="6.63422"/>
<feGaussianBlur stdDeviation="12.2545"/>
<feColorMatrix type="matrix" values="0 0 0 0 1 0 0 0 0 0.908333 0 0 0 0 0.908333 0 0 0 1 0"/>
<feBlend mode="normal" in2="BackgroundImageFix" result="effect1_dropShadow_3889_121628"/>
<feBlend mode="normal" in="SourceGraphic" in2="effect1_dropShadow_3889_121628" result="shape"/>
</filter>
<filter id="filter10_d_3889_121628" x="313.352" y="342.802" width="497.199" height="497.196" filterUnits="userSpaceOnUse" color-interpolation-filters="sRGB">
<feFlood flood-opacity="0" result="BackgroundImageFix"/>
<feColorMatrix in="SourceAlpha" type="matrix" values="0 0 0 0 0 0 0 0 0 0 0 0 0 0 0 0 0 0 127 0" result="hardAlpha"/>
<feOffset dy="6.63422"/>
<feGaussianBlur stdDeviation="9.95135"/>
<feColorMatrix type="matrix" values="0 0 0 0 0.608333 0 0 0 0 0 0 0 0 0 0 0 0 0 1 0"/>
<feBlend mode="normal" in2="BackgroundImageFix" result="effect1_dropShadow_3889_121628"/>
<feBlend mode="normal" in="SourceGraphic" in2="effect1_dropShadow_3889_121628" result="shape"/>
</filter>
<filter id="filter11_f_3889_121628" x="470.263" y="0.606525" width="162.944" height="162.943" filterUnits="userSpaceOnUse" color-interpolation-filters="sRGB">
<feFlood flood-opacity="0" result="BackgroundImageFix"/>
<feBlend mode="normal" in="SourceGraphic" in2="BackgroundImageFix" result="shape"/>
<feGaussianBlur stdDeviation="17.5389" result="effect1_foregroundBlur_3889_121628"/>
</filter>
<filter id="filter12_di_3889_121628" x="524.751" y="55.89" width="58.1761" height="58.1766" filterUnits="userSpaceOnUse" color-interpolation-filters="sRGB">
<feFlood flood-opacity="0" result="BackgroundImageFix"/>
<feColorMatrix in="SourceAlpha" type="matrix" values="0 0 0 0 0 0 0 0 0 0 0 0 0 0 0 0 0 0 127 0" result="hardAlpha"/>
<feOffset/>
<feGaussianBlur stdDeviation="13.4465"/>
<feComposite in2="hardAlpha" operator="out"/>
<feColorMatrix type="matrix" values="0 0 0 0 1 0 0 0 0 0.81685 0 0 0 0 0.795833 0 0 0 0.5 0"/>
<feBlend mode="normal" in2="BackgroundImageFix" result="effect1_dropShadow_3889_121628"/>
<feBlend mode="normal" in="SourceGraphic" in2="effect1_dropShadow_3889_121628" result="shape"/>
<feColorMatrix in="SourceAlpha" type="matrix" values="0 0 0 0 0 0 0 0 0 0 0 0 0 0 0 0 0 0 127 0" result="hardAlpha"/>
<feOffset/>
<feGaussianBlur stdDeviation="3.95597"/>
<feComposite in2="hardAlpha" operator="arithmetic" k2="-1" k3="1"/>
<feColorMatrix type="matrix" values="0 0 0 0 0.980392 0 0 0 0 0.501961 0 0 0 0 0.447059 0 0 0 0.7 0"/>
<feBlend mode="normal" in2="shape" result="effect2_innerShadow_3889_121628"/>
</filter>
<radialGradient id="paint0_radial_3889_121628" cx="0" cy="0" r="1" gradientUnits="userSpaceOnUse" gradientTransform="translate(276.111 251.007) rotate(-11.273) scale(5.31403 5.31403)">
<stop stop-color="#FA8072"/>
<stop offset="1" stop-color="#FDB3AB"/>
</radialGradient>
<linearGradient id="paint1_linear_3889_121628" x1="503.394" y1="575.287" x2="588.903" y2="552.375" gradientUnits="userSpaceOnUse">
<stop stop-color="#4497FA" stop-opacity="0"/>
<stop offset="0.40625" stop-color="white"/>
<stop offset="1" stop-color="#C9E2FF"/>
</linearGradient>
<linearGradient id="paint2_linear_3889_121628" x1="163.156" y1="507.456" x2="746.165" y2="351.238" gradientUnits="userSpaceOnUse">
<stop stop-color="#4497FA" stop-opacity="0"/>
<stop offset="0.40625" stop-color="white"/>
<stop offset="1" stop-color="#C9E2FF"/>
</linearGradient>
<linearGradient id="paint3_linear_3889_121628" x1="572.59" y1="699.009" x2="603.683" y2="690.679" gradientUnits="userSpaceOnUse">
<stop stop-color="#4497FA" stop-opacity="0"/>
<stop offset="0.40625" stop-color="white"/>
<stop offset="1" stop-color="#FFA89E"/>
</linearGradient>
<linearGradient id="paint4_linear_3889_121628" x1="623.576" y1="768.532" x2="600.843" y2="774.62" gradientUnits="userSpaceOnUse">
<stop stop-color="#FDCCC7"/>
<stop offset="1" stop-color="#01060D" stop-opacity="0"/>
</linearGradient>
<linearGradient id="paint5_linear_3889_121628" x1="472.006" y1="323.604" x2="503.101" y2="315.272" gradientUnits="userSpaceOnUse">
<stop stop-color="#4497FA" stop-opacity="0"/>
<stop offset="0.40625" stop-color="white"/>
<stop offset="1" stop-color="#FFA89E"/>
</linearGradient>
<linearGradient id="paint6_linear_3889_121628" x1="522.992" y1="393.123" x2="500.259" y2="399.215" gradientUnits="userSpaceOnUse">
<stop stop-color="#FDCCC7"/>
<stop offset="1" stop-color="#01060D" stop-opacity="0"/>
</linearGradient>
<linearGradient id="paint7_linear_3889_121628" x1="586.737" y1="567.382" x2="851.446" y2="496.454" gradientUnits="userSpaceOnUse">
<stop stop-color="#4497FA" stop-opacity="0"/>
<stop offset="0.40625" stop-color="white"/>
<stop offset="1" stop-color="#FFA89E"/>
</linearGradient>
<linearGradient id="paint8_linear_3889_121628" x1="846.206" y1="507.63" x2="652.668" y2="559.488" gradientUnits="userSpaceOnUse">
<stop stop-color="#FDCCC7"/>
<stop offset="1" stop-color="#01060D" stop-opacity="0"/>
</linearGradient>
<linearGradient id="paint9_linear_3889_121628" x1="211.63" y1="667.907" x2="476.338" y2="596.978" gradientUnits="userSpaceOnUse">
<stop stop-color="#4497FA" stop-opacity="0"/>
<stop offset="0.40625" stop-color="white"/>
<stop offset="1" stop-color="#FFA89E"/>
</linearGradient>
<linearGradient id="paint10_linear_3889_121628" x1="471.097" y1="608.154" x2="277.561" y2="660.012" gradientUnits="userSpaceOnUse">
<stop stop-color="#FDCCC7"/>
<stop offset="1" stop-color="#01060D" stop-opacity="0"/>
</linearGradient>
<linearGradient id="paint11_linear_3889_121628" x1="291.679" y1="466.962" x2="746.165" y2="351.238" gradientUnits="userSpaceOnUse">
<stop stop-color="#FFA89E"/>
<stop offset="0.40625" stop-color="white"/>
<stop offset="1" stop-color="#FFA89E"/>
</linearGradient>
<linearGradient id="paint12_linear_3889_121628" x1="465.023" y1="568.054" x2="606.778" y2="530.071" gradientUnits="userSpaceOnUse">
<stop stop-color="#4497FA" stop-opacity="0"/>
<stop offset="0.40625" stop-color="white"/>
<stop offset="1" stop-color="#C9E2FF"/>
</linearGradient>
<radialGradient id="paint13_radial_3889_121628" cx="0" cy="0" r="1" gradientUnits="userSpaceOnUse" gradientTransform="translate(555.096 594.583) rotate(90) scale(48.2979 48.2979)">
<stop stop-color="#FA8072"/>
<stop offset="1" stop-color="#8C180B" stop-opacity="0.73"/>
</radialGradient>
<radialGradient id="paint14_radial_3889_121628" cx="0" cy="0" r="1" gradientUnits="userSpaceOnUse" gradientTransform="translate(601.567 542.666) rotate(102.943) scale(93.095 93.0949)">
<stop stop-color="white"/>
<stop offset="1" stop-color="white" stop-opacity="0"/>
</radialGradient>
<linearGradient id="paint15_linear_3889_121628" x1="530.386" y1="690.74" x2="593.521" y2="478.787" gradientUnits="userSpaceOnUse">
<stop/>
<stop offset="0.802083" stop-color="#FF9E93"/>
<stop offset="1" stop-color="#FFE3E0"/>
</linearGradient>
<linearGradient id="paint16_linear_3889_121628" x1="513.768" y1="746.513" x2="610.134" y2="423.008" gradientUnits="userSpaceOnUse">
<stop/>
<stop offset="0.802083" stop-color="#FF9E93"/>
<stop offset="1" stop-color="#FFE3E0"/>
</linearGradient>
<linearGradient id="paint17_linear_3889_121628" x1="497.152" y1="802.299" x2="626.749" y2="367.235" gradientUnits="userSpaceOnUse">
<stop/>
<stop offset="0.802083" stop-color="#FF9E93"/>
<stop offset="1" stop-color="#FFE3E0"/>
</linearGradient>
<linearGradient id="paint18_linear_3889_121628" x1="552.437" y1="84.1896" x2="642.7" y2="307.609" gradientUnits="userSpaceOnUse">
<stop stop-color="#FA8072"/>
<stop offset="1" stop-color="#FA8072" stop-opacity="0"/>
</linearGradient>
<radialGradient id="paint19_radial_3889_121628" cx="0" cy="0" r="1" gradientUnits="userSpaceOnUse" gradientTransform="translate(552.328 86.6308) rotate(-85.4381) scale(3.62804 3.62805)">
<stop stop-color="#FA8072"/>
<stop offset="1" stop-color="#FDB3AB"/>
</radialGradient>
<clipPath id="clip0_3889_121628">
<rect width="858" height="880" fill="white"/>
</clipPath>
</defs>
</svg>
