<svg width="123" height="77" viewBox="0 0 123 77" fill="none" xmlns="http://www.w3.org/2000/svg">
<path d="M1.67874 1.27148C1.49287 2.1232 1.34631 2.98478 1.24012 3.8538C0.573825 9.30663 1.52429 14.8297 3.98153 19.784C6.43878 24.7383 10.3024 28.9213 15.1253 31.849C19.9482 34.7767 25.5333 36.3294 31.2344 36.3276C32.6186 36.3276 33.9512 36.1395 35.2745 35.9528L35.5953 35.9076C35.1324 37.4066 34.656 38.9315 33.8912 40.3013C33.1453 42.2419 31.9911 43.9307 30.833 45.6251L30.7446 45.7546C30.1183 46.9406 29.1903 47.8849 28.2671 48.8244C27.7267 49.3743 27.188 49.9225 26.7124 50.5165C25.876 51.4864 24.851 52.2549 23.8459 53.0087C23.2305 53.4701 22.6225 53.926 22.0697 54.4191C21.1335 55.3081 20.0072 55.9058 18.9228 56.4813C18.3521 56.7842 17.793 57.0809 17.2794 57.4107C16.8524 57.6464 16.4406 57.889 16.0378 58.1262C14.9724 58.7537 13.9701 59.3439 12.9185 59.6721L9.30229 61.1065C7.28284 61.9012 6.12888 62.3665 6.12888 62.3665L9.37609 74.8948L13.3814 73.9644C13.9289 73.8319 14.5278 73.69 15.1728 73.5371L15.1741 73.5368C16.0386 73.332 16.9862 73.1074 18.004 72.8595C19.3821 72.6147 20.8295 72.0469 22.3902 71.4347C22.8884 71.2392 23.3987 71.0391 23.9214 70.8436C24.6018 70.548 25.318 70.2842 26.0524 70.0136C27.6137 69.4383 29.258 68.8325 30.8184 67.8262C31.5713 67.3667 32.3621 66.9319 33.1675 66.4892C34.8306 65.5748 36.556 64.6262 38.138 63.355C38.8594 62.7382 39.628 62.1474 40.406 61.5493C42.0808 60.2618 43.7991 58.941 45.1826 57.2556C47.3966 54.9425 49.5838 52.513 51.2812 49.7476C53.0389 47.3904 54.2924 44.8266 55.5453 42.264L55.5471 42.2603C55.6948 41.9582 55.8424 41.6562 55.991 41.3545C57.2657 38.4921 58.2922 35.5652 59.1308 32.7222C60.7209 27.0234 61.4321 21.6088 61.7071 16.9761C61.9352 12.3369 61.801 8.47957 61.5193 5.68831C61.4191 4.52718 61.2759 3.36988 61.0899 2.21861L60.9435 1.27148M75.4789 1.27148C75.2931 2.1232 75.1465 2.98478 75.0403 3.8538C74.374 9.30663 75.3245 14.8297 77.7817 19.784C80.239 24.7383 84.1026 28.9213 88.9255 31.849C93.7484 34.7767 99.3335 36.3294 105.035 36.3276C106.419 36.3276 107.751 36.1396 109.075 35.9528L109.395 35.9076C108.933 37.4066 108.456 38.9315 107.691 40.3013C106.946 42.2419 105.791 43.9306 104.633 45.6251L104.545 45.7546C103.918 46.9406 102.99 47.885 102.067 48.8244C101.527 49.3743 100.988 49.9225 100.513 50.5165C99.6761 51.4864 98.6513 52.2549 97.6461 53.0086C97.0308 53.47 96.4227 53.926 95.8699 54.4191C94.9337 55.3081 93.8073 55.9058 92.723 56.4813C92.1523 56.7842 91.5932 57.0809 91.0796 57.4107C90.6526 57.6464 90.2407 57.889 89.8379 58.1262C88.7724 58.7537 87.7703 59.3439 86.7187 59.6721L83.1025 61.1065L79.9223 62.3794L83.1696 74.9078L87.1749 73.9773C87.7229 73.8447 88.3225 73.7026 88.9684 73.5496L88.9695 73.5493C89.8335 73.3445 90.7803 73.1201 91.7975 72.8725C93.1755 72.6276 94.623 72.0598 96.1836 71.4476C96.682 71.2521 97.192 71.0521 97.7149 70.8566C98.3953 70.561 99.1114 70.2971 99.8459 70.0265C101.407 69.4512 103.051 68.8454 104.612 67.8392C105.365 67.3796 106.156 66.9448 106.961 66.5021C108.624 65.5877 110.349 64.6391 111.932 63.368C112.653 62.7511 113.421 62.1603 114.199 61.5622C115.874 60.2747 117.593 58.9539 118.976 57.2685C119.934 56.2677 120.887 55.245 121.797 54.1828" stroke="#FA8072" stroke-width="2" stroke-linecap="round"/>
</svg>
